<svg xmlns="http://www.w3.org/2000/svg" xmlns:xlink="http://www.w3.org/1999/xlink" id="Capa_1" x="0px" y="0px" viewBox="0 0 512.098 512.098" style="enable-background:new 0 0 512.098 512.098;" xml:space="preserve">
<g>
	<g>
		<g>
			<path d="M484.169,201.331l-37.163-37.163c-9.976-9.975-26.223-9.993-36.216,0l-8.363,8.363l-8.371,8.363l-46.908,46.916     l-15.172-15.189L447.006,97.6l8.363-8.371l8.363-8.363c9.984-9.984,9.984-26.223,0-36.207L426.56,7.488     c-9.984-9.984-26.214-9.984-36.198,0l-16.734,16.734c-4.838,4.838-7.501,11.264-7.501,18.099c0,6.844,2.662,13.278,7.501,18.099     L410.79,97.6c2.125,2.125,4.574,3.695,7.151,4.924l-98.031,98.031l-15.181-15.181l46.857-46.865     c0.017-0.009,0.034-0.017,0.051-0.034l16.734-16.734c4.83-4.838,7.501-11.264,7.501-18.108c0-6.835-2.671-13.269-7.501-18.099     l-37.18-37.188c-9.984-9.941-26.214-9.967-36.198,0.009l-16.734,16.742c-9.984,9.984-9.984,26.214,0,36.198l37.171,37.18v0.008     c2.125,2.125,4.574,3.686,7.142,4.915l-29.918,29.909l-9.148-9.139c-9.984-9.984-26.214-9.984-36.198,0l-43.204,43.204     l62.054,62.054c0.009,0.008,0.017,0.008,0.026,0.017c4.83,4.838,7.501,11.273,7.501,18.108c0,6.835-2.671,13.269-7.501,18.108     l-98.475,98.475c-4.83,4.83-11.264,7.501-18.099,7.501c-6.844,0-13.278-2.671-18.108-7.501l-62.08-62.089L29.12,382.357     c-11.588,11.58-11.588,30.421,0,42.001l79.044,79.053c5.794,5.794,13.406,8.687,21.001,8.687c7.612,0,15.224-2.893,21.009-8.687     l169.6-169.6l-58.027,166.844c-1.553,4.454,0.794,9.31,5.256,10.863c0.922,0.324,1.869,0.469,2.799,0.469     c3.533,0,6.835-2.21,8.055-5.734l60.211-173.099l60.211,173.099c1.22,3.524,4.523,5.734,8.055,5.734     c0.93,0,1.877-0.145,2.799-0.469c4.454-1.553,6.81-6.409,5.257-10.863l-67.473-193.98l21.453-21.453     c9.984-9.984,9.984-26.223,0-36.207l-9.156-9.139l29.901-29.901c1.246,2.586,2.85,5.035,4.941,7.125l37.171,37.171     c4.83,4.838,11.264,7.501,18.108,7.501c6.835,0,13.269-2.662,18.099-7.501l16.734-16.734c4.83-4.83,7.501-11.264,7.501-18.099     C491.669,212.595,488.998,206.161,484.169,201.331z"></path>
			<path d="M155.644,392.065l63.642-63.642l-68.113-68.113l-69.675,69.675l62.08,62.08     C146.812,395.299,152.41,395.29,155.644,392.065z"></path>
			<path d="M254.118,293.59c1.604-1.613,2.5-3.755,2.5-6.033c0-2.287-0.887-4.42-2.5-6.024c-0.009-0.009-0.009-0.017-0.017-0.026     l-62.063-62.063l-28.8,28.8l68.113,68.113L254.118,293.59z"></path>
		</g>
	</g>
</g>
<g>
</g>
<g>
</g>
<g>
</g>
<g>
</g>
<g>
</g>
<g>
</g>
<g>
</g>
<g>
</g>
<g>
</g>
<g>
</g>
<g>
</g>
<g>
</g>
<g>
</g>
<g>
</g>
<g>
</g>
</svg>