<svg xmlns="http://www.w3.org/2000/svg" id="Capa_1" height="512" viewBox="0 0 512 512" width="512"><g id="XMLID_1414_"><g id="XMLID_304_"><path id="XMLID_305_" d="m388.03 0h-264c-27.57 0-50 22.43-50 50v161.062c0 5.522 4.478 10 10 10s10-4.478 10-10v-161.062c0-16.542 13.458-30 30-30h264c16.542 0 30 13.458 30 30v412c0 16.542-13.458 30-30 30h-264c-16.542 0-30-13.458-30-30v-160.937c0-5.522-4.478-10-10-10s-10 4.478-10 10v160.937c0 27.57 22.43 50 50 50h264c27.57 0 50-22.43 50-50v-412c0-27.57-22.429-50-50-50z"></path><path id="XMLID_595_" d="m394.03 422v-358c0-5.522-4.478-10-10-10h-256c-5.522 0-10 4.478-10 10v358c0 5.522 4.478 10 10 10h256c5.523 0 10-4.478 10-10zm-20-10h-236v-338h236z"></path><path id="XMLID_598_" d="m203.048 378.474c17.645 0 32-14.355 32-32s-14.355-32-32-32-32 14.355-32 32 14.355 32 32 32zm0-44c6.617 0 12 5.383 12 12s-5.383 12-12 12-12-5.383-12-12 5.383-12 12-12z"></path><path id="XMLID_601_" d="m264.549 269h54.296c17.38 0 31.519-14.139 31.519-31.519s-14.139-31.52-31.519-31.52h-28.915v-22.171l59.101-34.121c3.094-1.786 5-5.088 5-8.66s-1.906-6.874-5-8.66l-64.101-37.009c-3.094-1.787-6.906-1.787-10 0-3.094 1.786-5 5.088-5 8.66v101.962h-5.381c-17.379 0-31.519 14.14-31.519 31.52s14.14 31.518 31.519 31.518zm25.381-147.68 34.101 19.688-34.101 19.688zm-25.381 104.642h54.296c6.352 0 11.519 5.168 11.519 11.52s-5.168 11.518-11.519 11.518h-54.296c-6.352 0-11.519-5.167-11.519-11.519s5.167-11.519 11.519-11.519z"></path><path id="XMLID_603_" d="m255.967 452c-5.522 0-10 4.478-10 10s4.478 10 10 10h.127c5.522 0 10-4.478 10-10s-4.478-10-10-10z"></path><path id="XMLID_604_" d="m83.97 266.06c2.63 0 5.21-1.06 7.07-2.93 1.86-1.86 2.93-4.43 2.93-7.07 0-2.63-1.069-5.21-2.93-7.069-1.87-1.86-4.44-2.931-7.07-2.931-2.64 0-5.21 1.07-7.069 2.931-1.87 1.859-2.931 4.439-2.931 7.069 0 2.641 1.07 5.21 2.931 7.07 1.859 1.87 4.429 2.93 7.069 2.93z"></path></g></g></svg>